# xmcd
#
# Track frame offsets: 
#        150
#        16453
#        29993
#        43320
#        56501
#
# Disc length: 946 seconds
#
# Revision: 0
# Processed by: cddbd v1.5.2PL0 Copyright (c) Steve Scherf et al.
# Submitted via: ExactAudioCopyFreeDBPlugin 1.0
#
DISCID=4503b005
DTITLE=Tasji Bachman - Forever in a Second
DYEAR=2018
DGENRE=Country
TTITLE0=Heat of the Summer
TTITLE1=Lips Ain't Lonely
TTITLE2=Everything I Was
TTITLE3=Play Pretend
TTITLE4=High Rollers
EXTD=
EXTT0=
EXTT1=
EXTT2=
EXTT3=
EXTT4=
PLAYORDER=
